<?xml version="1.0" encoding="UTF-8" standalone="no"?>
<svg width="37px" height="37px" viewBox="0 0 37 37" version="1.1" xmlns="http://www.w3.org/2000/svg" xmlns:xlink="http://www.w3.org/1999/xlink" xmlns:sketch="http://www.bohemiancoding.com/sketch/ns">
    <!-- Generator: Sketch 3.0.3 (7891) - http://www.bohemiancoding.com/sketch -->
    <title>clock40</title>
    <desc>Created with Sketch.</desc>
    <defs></defs>
    <g id="Overview" stroke="none" stroke-width="1" fill="none" fill-rule="evenodd" sketch:type="MSPage">
        <g id="Desktop" sketch:type="MSArtboardGroup" transform="translate(-257.000000, -95.000000)" fill="#7ED321">
            <g id="120-hours-logged-+-clock40" sketch:type="MSLayerGroup" transform="translate(257.000000, 95.000000)">
                <g id="clock40" sketch:type="MSShapeGroup">
                    <g id="Layer_8">
                        <path d="M18.24048,0.21744 C8.30304,0.21744 0.21792,8.30256 0.21792,18.24 C0.21792,28.17744 8.30304,36.26256 18.24048,36.26256 C28.17792,36.26256 36.26304,28.17744 36.26304,18.24 C36.26304,8.30256 28.17792,0.21744 18.24048,0.21744 L18.24048,0.21744 Z M18.24048,33.3264 C9.92256,33.3264 3.15456,26.55792 3.15456,18.24 C3.15456,9.92208 9.92256,3.15408 18.24048,3.15408 C26.5584,3.15408 33.3264,9.92208 33.3264,18.24 C33.3264,26.55792 26.5584,33.3264 18.24048,33.3264 L18.24048,33.3264 Z M27.55008,13.60464 C27.85104,14.04096 27.7416,14.63856 27.30528,14.94 L18.60576,20.95008 C18.44256,21.06288 18.25152,21.12 18.06,21.12 C17.90736,21.12 17.75424,21.08352 17.61408,21.01008 C17.29824,20.84352 17.1,20.51664 17.1,20.16 L17.1,7.29648 C17.1,6.76656 17.53008,6.33648 18.06,6.33648 C18.58992,6.33648 19.02,6.76656 19.02,7.29648 L19.02,18.32976 L26.21424,13.35984 C26.65104,13.05984 27.2496,13.16928 27.55008,13.60464 L27.55008,13.60464 Z" id="Shape"></path>
                    </g>
                </g>
            </g>
        </g>
    </g>
</svg>